<svg xmlns="http://www.w3.org/2000/svg" id="_&#x421;&#x43B;&#x43E;&#x439;_1" data-name="&#x421;&#x43B;&#x43E;&#x439; 1" viewBox="0 0 26.23 21.96"><defs><style> .cls-1 { fill: #090a0a; stroke-width: 0px; } .cls-2 { fill: #fff; stroke: #1d1d1b; stroke-miterlimit: 10; } </style></defs><rect class="cls-2" x=".5" y=".5" width="25.23" height="20.96"></rect><g><path class="cls-1" d="m4.06,12.59v-3.18c0-2.21-.01-3.51-.04-3.9-.02-.32-.09-.56-.19-.71-.1-.15-.3-.26-.58-.32-.14-.04-.35-.05-.61-.05-.1,0-.14-.04-.14-.11,0-.1.1-.14.29-.14.24,0,.52,0,.83,0,.31,0,.58.02.82.03.23.01.36.02.39.02.1,0,.42,0,.97-.03.55-.02.98-.03,1.3-.03,1.5,0,2.62.34,3.35,1.03.6.58.9,1.36.9,2.36,0,1.18-.42,2.15-1.26,2.92s-1.9,1.15-3.17,1.15c-.19,0-.32,0-.38-.02-.13,0-.2-.04-.2-.13,0-.11.16-.16.49-.16.89,0,1.63-.28,2.22-.85.59-.57.89-1.31.89-2.24,0-1.07-.34-1.95-1.01-2.63-.59-.6-1.41-.9-2.47-.9-.35,0-.61.04-.77.11-.1.04-.14.15-.14.34v7.41c0,2.1.03,3.41.09,3.91.04.3.1.53.19.69.09.16.26.26.51.3.34.05.61.07.81.07.1,0,.14.04.14.11,0,.1-.1.14-.29.14-.29,0-.61,0-.96,0s-.65-.02-.88-.03c-.23-.01-.36-.02-.37-.02h-.32c-.22.01-.47.02-.75.04-.28.01-.5.02-.66.02-.19,0-.29-.05-.29-.14,0-.07.05-.11.14-.11.14,0,.32-.02.54-.07.26-.05.44-.38.52-.99.06-.51.09-1.81.09-3.91Z"></path><path class="cls-1" d="m19.2,12.5h-3.87c-.08,0-.14.05-.18.14l-1.08,3.19c-.17.47-.25.87-.25,1.21,0,.17.07.3.2.39.13.09.28.14.45.14h.16c.16,0,.23.04.23.11,0,.1-.11.14-.32.14-.17,0-.42,0-.76-.03-.34-.02-.54-.03-.58-.03-.01,0-.27,0-.77.03-.5.02-.92.03-1.26.03-.23,0-.34-.05-.34-.14,0-.07.08-.11.25-.11.1,0,.24-.01.43-.04.38-.05.68-.21.9-.5.22-.28.42-.68.61-1.2l4.09-11.2c.17-.47.3-.7.4-.7s.23.22.4.65c.05.12.35.91.91,2.38.56,1.47,1.16,3.05,1.82,4.74s1.14,2.95,1.47,3.75c.48,1.18,1,1.85,1.55,2,.21.07.45.11.7.11.13,0,.2.04.2.11,0,.1-.12.14-.36.14-1.06,0-2-.01-2.83-.04-.36-.02-.54-.07-.54-.13s.04-.1.12-.13c.17-.06.21-.22.11-.49l-1.67-4.44c-.04-.07-.09-.11-.16-.11Zm-3.67-.65h3.44c.07,0,.1-.04.07-.13l-1.71-4.87c-.08-.28-.17-.28-.27,0l-1.58,4.87c-.04.08-.02.13.05.13Z"></path></g></svg>