<svg xmlns="http://www.w3.org/2000/svg" id="_&#x421;&#x43B;&#x43E;&#x439;_1" data-name="&#x421;&#x43B;&#x43E;&#x439; 1" viewBox="0 0 52.35 19.17"><defs><style> .cls-1 { stroke-width: 0px; } </style></defs><path class="cls-1" d="m1.8,5.59v-2.11c0-1.47,0-2.34-.02-2.59-.02-.22-.06-.37-.13-.47s-.2-.17-.39-.21c-.1-.02-.23-.04-.41-.04-.06,0-.1-.02-.1-.07,0-.06.06-.1.19-.1.16,0,.34,0,.55,0,.21,0,.39,0,.55.02.16,0,.24.01.26.01.06,0,.28,0,.65-.02.37-.01.66-.02.86-.02,1,0,1.74.23,2.23.68.4.38.6.91.6,1.57,0,.78-.28,1.43-.84,1.94-.56.51-1.26.77-2.11.77-.13,0-.21,0-.25-.01-.09,0-.13-.03-.13-.08,0-.07.11-.11.32-.11.59,0,1.09-.19,1.48-.56s.59-.87.59-1.49c0-.71-.22-1.3-.67-1.75-.39-.4-.94-.6-1.64-.6-.23,0-.4.02-.52.07-.06.02-.1.1-.1.23v4.93c0,1.4.02,2.27.06,2.6.02.2.07.35.13.46s.17.17.34.2c.22.03.4.05.54.05.06,0,.1.02.1.07,0,.06-.06.1-.19.1-.19,0-.41,0-.64,0-.24,0-.43,0-.59-.02-.16,0-.24-.01-.25-.01h-.22c-.14,0-.31.02-.5.02s-.33.01-.44.01c-.13,0-.19-.03-.19-.1,0-.05.03-.07.1-.07.1,0,.22-.02.36-.05.18-.03.29-.25.35-.66.04-.34.06-1.2.06-2.6Z"></path><path class="cls-1" d="m8.25,13.31h-3.69c-.09,0-.16.06-.2.18l-.89,2.88c-.23.74-.34,1.28-.34,1.63,0,.4.22.6.67.6h.14c.16,0,.24.05.24.16s-.1.16-.3.16c-.16,0-.46-.01-.88-.03s-.67-.03-.72-.03c-.01,0-.26.01-.73.03-.47.02-.88.03-1.22.03-.22,0-.32-.05-.32-.16s.08-.16.24-.16c.19,0,.33,0,.41-.02.39-.05.7-.21.92-.51.22-.29.44-.73.64-1.31L6.27,4.64c.11-.34.19-.55.24-.64.05-.09.11-.14.18-.14.09,0,.23.25.41.74.03.08.62,1.76,1.76,5.04,1.15,3.28,1.93,5.49,2.35,6.62.46,1.26.97,2,1.54,2.23.18.08.41.12.69.12.16,0,.24.05.24.16s-.1.16-.3.16c-1.15,0-2.18-.02-3.08-.05-.34-.02-.51-.07-.51-.16,0-.08.05-.13.14-.16.15-.08.18-.25.08-.51l-1.6-4.62c-.04-.08-.09-.11-.16-.11Zm-3.49-.81h3.24c.07,0,.09-.05.06-.14l-1.6-5.08c-.07-.23-.14-.23-.22,0l-1.52,5.08c-.04.09-.03.14.04.14Z"></path><g><path class="cls-1" d="m14.72,15.53v-2.11c0-1.47,0-2.34-.02-2.59-.01-.22-.05-.37-.11-.47s-.18-.17-.35-.21c-.09-.02-.21-.04-.37-.04-.06,0-.09-.02-.09-.07,0-.06.06-.1.17-.1.15,0,.32,0,.51,0,.2,0,.36,0,.5.02.14,0,.21.01.22.01.02,0,.21,0,.56-.02.35-.01.59-.02.73-.02.89,0,1.55.18,2,.53.18.14.35.36.51.65.16.29.24.62.24.98,0,.95-.44,1.88-1.32,2.77,1.16,1.63,1.91,2.66,2.27,3.07.43.5.87.78,1.33.86.14.02.28.04.43.04.07,0,.1.02.1.07,0,.06-.09.1-.26.1h-.77c-.52,0-.91-.08-1.17-.23-.15-.09-.31-.23-.49-.43-.18-.2-.31-.36-.4-.49-.09-.12-.28-.41-.59-.85-.17-.25-.39-.59-.68-1.01-.28-.43-.46-.68-.51-.76-.04-.05-.09-.07-.14-.07l-1.34-.02c-.05,0-.08.03-.08.1v.29c0,1.4.02,2.27.05,2.6.02.2.06.35.11.46s.16.17.31.2c.2.03.37.05.49.05.06,0,.09.02.09.07,0,.06-.06.1-.17.1-.17,0-.37,0-.58,0-.21,0-.39,0-.53-.02-.14,0-.22-.01-.22-.01h-.08c-.05,0-.12.01-.2.02-.08,0-.16,0-.25,0s-.18,0-.27,0c-.09,0-.17,0-.23,0-.12,0-.17-.03-.17-.1,0-.05.03-.07.09-.07.09,0,.2-.02.33-.05.16-.03.27-.25.32-.66.04-.34.05-1.2.05-2.6Zm.87-4.99v3.92c0,.06.03.11.08.14.2.13.58.19,1.15.19.35,0,.62-.08.82-.23.44-.34.67-.95.67-1.85,0-.75-.17-1.34-.51-1.76-.34-.42-.8-.64-1.38-.64-.34,0-.59.02-.73.07-.06.02-.09.07-.09.14Z"></path><path class="cls-1" d="m24.68,19.17c-1.53,0-2.73-.43-3.6-1.3-.88-.87-1.32-2.06-1.32-3.55,0-.5.09-1.06.28-1.66.19-.6.5-1.14.94-1.62.78-.86,1.89-1.28,3.33-1.28.58,0,1.11.05,1.58.14.1.02.49.08,1.16.18.07,0,.1.05.1.13,0,.02,0,.06-.01.11,0,.05-.01.13-.02.23,0,.1-.01.21-.02.33,0,.14-.01.37-.02.69,0,.32-.01.5-.01.55,0,.17-.04.25-.1.25s-.09-.08-.09-.25c0-.53-.15-.94-.46-1.22-.2-.19-.5-.35-.9-.49-.4-.13-.82-.2-1.28-.2-1.13,0-1.96.29-2.51.88-.37.39-.63.84-.77,1.35-.14.51-.21,1.1-.21,1.78,0,1.18.37,2.21,1.12,3.08.75.87,1.69,1.31,2.82,1.31.91,0,1.54-.2,1.9-.6.2-.23.34-.57.4-1.01.02-.12.06-.18.11-.18s.08.06.08.18c0,.06-.03.29-.08.68s-.11.68-.16.85c-.03.11-.06.19-.09.22-.03.04-.09.08-.2.13-.42.18-1.07.28-1.96.28Z"></path><path class="cls-1" d="m29.55,13.74h4.63s.07-.02.07-.07v-.25c0-1.47,0-2.34-.02-2.59-.01-.22-.05-.37-.11-.47s-.18-.17-.35-.21c-.09-.02-.21-.04-.37-.04-.06,0-.09-.02-.09-.07,0-.06.06-.1.17-.1.15,0,.32,0,.51,0,.2,0,.36,0,.5.02.14,0,.21.01.22.01s.08,0,.21-.01c.13,0,.29-.01.46-.02.17,0,.3,0,.4,0,.12,0,.17.03.17.1,0,.05-.03.07-.09.07-.05,0-.14.01-.27.04-.15.03-.25.1-.3.2s-.09.26-.1.48c-.01.26-.02,1.12-.02,2.59v2.11c0,1.4.02,2.27.05,2.6.02.2.06.35.11.46.05.11.16.17.31.2.2.03.37.05.49.05.06,0,.09.02.09.07,0,.06-.06.1-.17.1-.17,0-.37,0-.58,0-.21,0-.39,0-.53-.02-.14,0-.22-.01-.22-.01s-.08,0-.21,0c-.13,0-.29.01-.46.02-.17,0-.3.01-.4.01-.12,0-.17-.03-.17-.1,0-.05.03-.07.09-.07.09,0,.2-.02.33-.05.16-.03.27-.25.32-.66.04-.34.05-1.2.05-2.6v-1.26s-.02-.07-.07-.07h-4.63s-.07.02-.07.07v1.26c0,1.4.02,2.27.05,2.6.02.2.06.35.11.46.05.11.16.17.31.2.2.03.37.05.49.05.06,0,.09.02.09.07,0,.06-.06.1-.17.1-.17,0-.37,0-.58,0-.21,0-.39,0-.53-.02-.14,0-.22-.01-.22-.01s-.08,0-.21,0c-.13,0-.29.01-.46.02-.17,0-.3.01-.4.01-.12,0-.17-.03-.17-.1,0-.05.03-.07.09-.07.09,0,.2-.02.33-.05.16-.03.27-.25.32-.66.04-.34.05-1.2.05-2.6v-2.11c0-1.47,0-2.34-.02-2.59-.01-.22-.05-.37-.11-.47s-.18-.17-.35-.21c-.09-.02-.21-.04-.37-.04-.06,0-.09-.02-.09-.07,0-.06.06-.1.17-.1.15,0,.32,0,.51,0,.2,0,.36,0,.5.02.14,0,.21.01.22.01s.08,0,.21-.01c.13,0,.29-.01.46-.02.17,0,.3,0,.4,0,.12,0,.17.03.17.1,0,.05-.03.07-.09.07-.05,0-.14.01-.27.04-.15.03-.25.1-.3.2s-.09.26-.1.48c-.01.26-.02,1.12-.02,2.59v.25s.02.07.07.07Z"></path><path class="cls-1" d="m37.04,15.53v-2.11c0-1.47,0-2.34-.02-2.59-.02-.39-.13-.62-.32-.67-.09-.03-.19-.05-.29-.05-.05,0-.08-.02-.08-.07,0-.06.05-.1.15-.1.09,0,.22,0,.37,0,.15,0,.29,0,.4.02.12,0,.18.01.18.01s.07,0,.18-.01c.12,0,.25-.01.4-.02.15,0,.26,0,.35,0,.1,0,.15.03.15.1,0,.05-.03.07-.08.07-.04,0-.12.01-.24.04-.13.03-.21.1-.26.2s-.08.26-.09.48c-.01.26-.02,1.12-.02,2.59v2.11c0,1.4.02,2.27.05,2.6.02.2.05.35.1.46.05.11.14.17.27.2.18.03.31.05.39.05.08,0,.11.02.11.07,0,.06-.05.1-.14.1-.15,0-.32,0-.51,0-.19,0-.35,0-.47-.02-.12,0-.19-.01-.19-.01s-.07,0-.18,0c-.12,0-.25.01-.4.02-.15,0-.26.01-.35.01-.1,0-.15-.03-.15-.1,0-.05.03-.07.1-.07.08,0,.16-.01.25-.04.15-.04.24-.26.28-.67.03-.34.05-1.2.05-2.6Z"></path><path class="cls-1" d="m42.56,18.43l-2.67-7.36c-.12-.32-.23-.54-.33-.65-.1-.12-.25-.21-.46-.27-.11-.03-.25-.05-.41-.05-.06,0-.09-.03-.09-.08s.09-.08.28-.08c.2,0,.46,0,.76.02.31.01.47.02.48.02s.14,0,.38-.02c.24-.01.44-.02.61-.02.2,0,.29.03.29.08s-.04.08-.11.08c-.2,0-.33.02-.41.06-.09.05-.14.13-.14.24,0,.1.07.36.22.77l2.23,6.37c.31-.79.75-1.99,1.31-3.59.56-1.6.9-2.63,1.03-3.07.07-.22.1-.37.1-.46,0-.13-.05-.22-.14-.28-.09-.03-.23-.05-.41-.05-.08,0-.12-.02-.12-.07,0-.06.08-.1.24-.1.17,0,.39,0,.66.02.26.01.4.02.41.02l.33-.02c.23,0,.4-.01.52-.01s.19.03.19.08-.04.08-.13.08c-.21,0-.39.05-.52.14-.17.14-.37.51-.6,1.13-.05.14-.46,1.22-1.22,3.25-.78,2.05-1.25,3.26-1.41,3.64-.03.07-.06.15-.09.22s-.06.14-.08.19c-.02.05-.04.1-.06.15-.02.05-.04.09-.05.12-.01.03-.03.06-.04.09-.01.03-.03.06-.03.07s-.02.03-.03.04c-.01.01-.02.02-.03.02-.01,0-.02,0-.04,0-.06,0-.11-.04-.15-.13-.04-.09-.12-.29-.24-.61Z"></path><path class="cls-1" d="m48.46,15.53v-2.11c0-1.47,0-2.34-.02-2.59-.01-.22-.05-.37-.11-.47s-.18-.17-.35-.21c-.02,0-.05-.01-.09-.02-.04,0-.08,0-.13-.01s-.08,0-.1,0c-.09-.02-.14-.04-.14-.07,0-.06.06-.1.17-.1.36,0,.77.01,1.23.04,1.5,0,2.33,0,2.5-.01.27-.02.44-.04.5-.07.06-.03.1-.05.12-.05.03,0,.04.04.04.11,0,.02-.01.08-.04.2-.03.12-.04.24-.05.37l-.04.72c-.01.14-.04.2-.09.2-.06,0-.09-.05-.09-.16,0-.16-.02-.29-.05-.4-.07-.25-.33-.4-.79-.44-.19-.02-.69-.04-1.5-.04-.04,0-.07.04-.07.12v3.31c0,.08.02.12.07.12.99,0,1.57,0,1.74-.02.28-.02.46-.09.55-.2.06-.08.1-.12.13-.12.04,0,.05.03.05.1,0,.02,0,.05-.02.11-.01.06-.02.14-.04.24s-.03.21-.03.32c-.01.14-.03.31-.03.51,0,.2-.01.3-.01.31-.01.12-.04.18-.08.18-.05,0-.08-.06-.08-.19s-.01-.24-.04-.34c-.05-.22-.24-.36-.57-.4s-.85-.06-1.56-.06c-.05,0-.08.03-.08.08v3.11c.01.26.05.46.09.59.05.13.14.23.27.28.16.07.46.11.91.11s.76-.04.98-.11c.17-.06.29-.15.37-.28.08-.13.14-.33.19-.61.02-.12.05-.18.1-.18s.07.06.07.18c0,.06-.02.24-.05.54-.04.3-.07.51-.09.62-.04.15-.09.24-.15.27-.07.03-.21.04-.44.04-.21,0-.74-.01-1.59-.04-.87-.02-1.33-.04-1.36-.04-.07,0-.2,0-.38.02-.18.02-.32.02-.43.01-.12,0-.17-.03-.17-.1,0-.03.04-.06.12-.07.14-.02.22-.03.25-.04.13-.03.23-.12.29-.28.06-.15.1-.44.1-.85.01-.62.02-1.34.02-2.15Z"></path></g><path class="cls-1" d="m11.46,3.73v2.14c0,.92.02,1.58.05,1.99.04.4.11.66.21.76.18.18.66.28,1.44.28.39,0,.7-.02.92-.06.22-.04.4-.14.53-.3.17-.2.27-.44.31-.72.02-.1.05-.16.11-.16.05,0,.07.06.07.18,0,.37-.06.77-.18,1.2-.04.14-.1.23-.18.27-.08.04-.27.05-.58.05-.34,0-.86-.01-1.56-.04-.7-.02-1.26-.04-1.66-.04-.12,0-.31,0-.56.02-.26.01-.46.02-.61.02-.13,0-.19-.03-.19-.1,0-.05.03-.07.1-.07.1,0,.22-.02.36-.05.18-.03.29-.25.35-.66.04-.34.06-1.2.06-2.6v-2.11c0-1.47,0-2.34-.02-2.59-.02-.22-.06-.37-.13-.47-.07-.1-.2-.17-.39-.21-.1-.02-.23-.04-.41-.04-.06,0-.1-.02-.1-.07,0-.06.06-.1.19-.1.16,0,.35,0,.56,0,.22,0,.4,0,.55.02s.23.01.24.01c0,0,.1,0,.26-.01s.36-.01.56-.02.36,0,.47,0c.13,0,.19.03.19.1,0,.05-.03.07-.1.07-.12,0-.25.01-.4.04-.17.03-.28.1-.35.21-.06.1-.1.26-.12.48-.02.26-.02,1.12-.02,2.59Z"></path><path class="cls-1" d="m16.41,5.84v-2.11c0-1.47,0-2.34-.02-2.59-.02-.39-.16-.62-.41-.67-.12-.03-.24-.05-.37-.05-.06,0-.1-.02-.1-.07,0-.06.06-.1.19-.1.12,0,.28,0,.47,0s.36,0,.51.02.23.01.23.01c0,0,.09,0,.23-.01s.32-.01.5-.02.33,0,.44,0c.13,0,.19.03.19.1,0,.05-.03.07-.1.07-.06,0-.16.01-.3.04-.16.03-.27.1-.33.21-.06.1-.1.26-.11.48-.02.26-.02,1.12-.02,2.59v2.11c0,1.4.02,2.27.06,2.6.02.2.07.35.13.46.06.11.17.17.34.2.22.03.39.05.49.05.1,0,.14.02.14.07,0,.06-.06.1-.18.1-.19,0-.41,0-.65,0-.24,0-.44,0-.59-.02-.16,0-.24-.01-.25-.01,0,0-.09,0-.23,0s-.32.01-.5.02-.33.01-.44.01c-.13,0-.19-.03-.19-.1,0-.05.04-.07.13-.07.1,0,.21-.01.31-.04.18-.04.3-.26.36-.67.04-.34.06-1.2.06-2.6Z"></path><path class="cls-1" d="m28.81.41l.8,7.37c.08.74.3,1.16.65,1.27.23.07.48.11.74.11.09,0,.13.02.13.07,0,.06-.06.1-.18.1-.79,0-1.48-.02-2.08-.07-.22-.02-.34-.06-.34-.12,0-.03.03-.06.08-.08.06-.02.08-.17.05-.43l-.58-6.26-2.98,6.31c-.18.39-.3.6-.34.62-.02,0-.04.01-.06.01-.06,0-.18-.18-.37-.55-.14-.26-.6-1.19-1.4-2.79-.06-.13-.34-.72-.82-1.75s-.75-1.61-.8-1.76l-.49,5.65c-.02.26-.02.44-.02.56,0,.25.11.39.32.43.14.03.28.05.43.05.08,0,.12.02.12.06,0,.07-.06.11-.18.11-.18,0-.41,0-.71-.01l-.44-.02s-.16,0-.42.02c-.26.01-.46.02-.59.02-.14,0-.2-.03-.2-.1,0-.05.04-.07.12-.07.12,0,.24-.01.36-.04.22-.04.37-.24.43-.61,0-.04.02-.17.05-.38l.86-7.8c.02-.16.06-.24.13-.24.06,0,.12.06.18.18l3.67,7.55L28.49.27c.06-.13.12-.19.18-.19.07,0,.12.11.14.32Z"></path><path class="cls-1" d="m32.29,5.84v-2.11c0-1.47,0-2.34-.02-2.59-.02-.22-.06-.37-.13-.47-.07-.1-.2-.17-.39-.21-.02,0-.06-.01-.1-.02-.04,0-.09,0-.14-.01s-.09,0-.11,0c-.1-.02-.16-.04-.16-.07,0-.06.06-.1.19-.1.4,0,.85.01,1.36.04,1.65,0,2.56,0,2.75-.01.3-.02.48-.04.55-.07.06-.03.11-.05.13-.05.03,0,.05.04.05.11,0,.02-.01.08-.04.2-.03.12-.05.24-.05.37l-.05.72c-.02.14-.05.21-.1.21-.06,0-.1-.05-.1-.16,0-.16-.02-.29-.06-.4-.08-.25-.37-.4-.86-.44-.21-.02-.76-.04-1.64-.04-.05,0-.07.04-.07.12v3.31c0,.08.02.12.07.12,1.09,0,1.72,0,1.91-.02.3-.02.5-.09.6-.21.06-.08.11-.12.14-.12.04,0,.06.03.06.1,0,.02,0,.05-.02.11-.01.06-.03.14-.04.24-.02.1-.03.21-.04.32-.02.14-.03.31-.04.51,0,.2-.01.3-.01.31-.02.12-.04.18-.08.18-.06,0-.08-.06-.08-.19s-.02-.24-.05-.34c-.06-.22-.26-.36-.62-.4s-.93-.06-1.72-.06c-.06,0-.08.03-.08.08v3.11c.02.26.05.46.1.59.05.13.15.23.29.28.18.07.51.11,1,.11s.84-.04,1.08-.11c.18-.06.32-.15.41-.28.09-.13.16-.33.2-.61.02-.12.06-.18.11-.18s.07.06.07.18c0,.06-.02.24-.06.54-.04.3-.07.51-.1.62-.04.15-.1.24-.17.27-.07.03-.23.04-.48.04-.23,0-.82-.01-1.75-.04-.96-.02-1.46-.04-1.5-.04-.08,0-.22,0-.42.02s-.36.02-.47.01c-.13,0-.19-.03-.19-.1,0-.03.04-.06.13-.07.15-.02.24-.03.28-.04.14-.03.25-.12.32-.28.07-.15.11-.44.11-.85.02-.62.02-1.34.02-2.15Z"></path></svg>